#!OML:ASF F:\VICON\USERDATA\INSTALL\rory3\rory3.ASF
:FULLY-SPECIFIED
:DEGREES
786
root -1.85223 28.5918 -6.23903 179.307 1.89142 181.691
lowerback 10.2227 1.02972 -4.11652
upperback 2.69385 1.1821 -1.46524
thorax -2.96616 0.728604 0.639503
lowerneck -5.34584 3.29641 -5.90604
upperneck 19.2652 3.51605 3.95086
head 6.53265 1.18064 2.45132
rclavicle -1.66979e-014 1.43125e-014
rhumerus -24.8058 9.20707 -88.2527
rradius 40.9858
rwrist 9.79013
rhand -27.7638 4.47493
rfingers 7.12502
rthumb -1.15776 -25.5017
lclavicle -1.66979e-014 1.43125e-014
lhumerus -21.6002 15.1464 78.7038
lradius 23.0729
lwrist -4.87529
lhand -30.3291 19.7495
lfingers 7.12502
lthumb -3.63527 49.6982
rfemur -15.9505 6.1971 18.9643
rtibia 56.5976
rfoot -19.831 -21.3737
rtoes -4.49854
lfemur -21.8839 10.0674 -26.4262
ltibia 50.0053
lfoot -28.5587 -0.956625
ltoes 13.4967
787
root -1.85612 28.6133 -6.26484 179.178 1.54297 181.73
lowerback 10.1905 1.04896 -4.11059
upperback 2.64862 1.20443 -1.43828
thorax -2.99701 0.738554 0.661366
lowerneck -5.47347 3.28723 -5.92373
upperneck 19.4245 3.5217 3.86784
head 6.60762 1.17091 2.43317
rclavicle -6.95746e-015 -1.27222e-014
rhumerus -25.1521 9.10549 -88.058
rradius 40.996
rwrist 9.51819
rhand -27.6587 4.26826
rfingers 7.12502
rthumb -1.05629 -25.7089
lclavicle -6.95746e-015 -1.27222e-014
lhumerus -21.7287 15.4745 78.8549
lradius 22.919
lwrist -5.11608
lhand -30.2251 19.4173
lfingers 7.12502
lthumb -3.53479 49.3677
rfemur -16.2974 6.29188 18.8872
rtibia 57.1206
rfoot -20.6197 -21.7875
rtoes -4.53891
lfemur -21.3535 9.80626 -26.3389
ltibia 49.4847
lfoot -28.5142 -1.07573
ltoes 13.2242
788
root -1.85782 28.6332 -6.29013 179.008 1.0624 181.685
lowerback 10.1589 1.08129 -4.1774
upperback 2.65289 1.24531 -1.4785
thorax -2.977 0.760578 0.652475
lowerneck -5.41665 3.20594 -5.8583
upperneck 19.3266 3.41633 3.84298
head 6.57383 1.12929 2.40521
rclavicle 8.15017e-015 -2.94201e-014
rhumerus -25.3627 8.73266 -87.8718
rradius 40.8896
rwrist 9.25808
rhand -27.5382 4.22439
rfingers 7.12502
rthumb -0.939944 -25.7533
lclavicle 8.15017e-015 -2.94201e-014
lhumerus -21.7283 15.598 78.9832
lradius 22.6019
lwrist -5.51594
lhand -30.0542 19.2265
lfingers 7.12502
lthumb -3.36982 49.1796
rfemur -16.5971 6.30749 18.7266
rtibia 57.6637
rfoot -21.5063 -22.066
rtoes -3.60348
lfemur -20.7804 9.43772 -26.3513
ltibia 48.9534
lfoot -28.2952 -1.21085
ltoes 13.4299
789
root -1.8604 28.6524 -6.3174 178.772 0.5308 181.433
lowerback 10.1748 1.08844 -4.4357
upperback 2.67153 1.23571 -1.55377
thorax -2.96831 0.760972 0.71999
lowerneck -5.26742 3.15598 -6.0277
upperneck 19.1735 3.34256 4.00698
head 6.49545 1.10111 2.47612
rclavicle 5.96354e-015 -4.85035e-014
rhumerus -25.6375 8.46385 -87.6944
rradius 40.7663
rwrist 9.19003
rhand -27.6471 4.30626
rfingers 7.12502
rthumb -1.0451 -25.6709
lclavicle 5.96354e-015 -4.85035e-014
lhumerus -21.7226 15.9243 79.1072
lradius 22.2521
lwrist -5.95459
lhand -29.9347 19.1146
lfingers 7.12502
lthumb -3.25444 49.0695
rfemur -16.8616 6.27273 18.3096
rtibia 58.1994
rfoot -22.3129 -22.1427
rtoes -2.03469
lfemur -20.1028 9.05856 -26.5936
ltibia 48.4279
lfoot -28.1401 -1.29147
ltoes 13.3475
790
root -1.86262 28.6721 -6.34448 178.593 0.0455948 181.267
lowerback 10.2172 1.0737 -4.64749
upperback 2.61824 1.18922 -1.57135
thorax -3.04808 0.741071 0.824541
lowerneck -5.20851 3.19928 -6.21562
upperneck 19.1729 3.39893 4.12966
head 6.47532 1.12385 2.54905
rclavicle -9.74045e-015 -2.78299e-014
rhumerus -26.0371 8.32928 -87.538
rradius 40.6935
rwrist 9.20817
rhand -27.747 4.17861
rfingers 7.12502
rthumb -1.14156 -25.7981
lclavicle -9.74045e-015 -2.78299e-014
lhumerus -21.8275 16.3496 79.2179
lradius 22.0361
lwrist -6.27079
lhand -29.6957 19.4551
lfingers 7.12502
lthumb -3.02354 49.4134
rfemur -17.1873 6.32078 17.9915
rtibia 58.6909
rfoot -22.8323 -22.2999
rtoes -0.679476
lfemur -19.5188 8.72663 -26.7415
ltibia 47.9438
lfoot -28.0528 -1.18334
ltoes 12.3532
791
root -1.866 28.6955 -6.37041 178.482 -0.397098 181.473
lowerback 10.1796 1.42351 -4.42261
upperback 2.61051 1.08925 -1.51886
thorax -3.0471 0.438586 0.778967
lowerneck -5.32633 3.25666 -6.13604
upperneck 19.2341 3.47856 4.1484
head 6.51213 1.17147 2.55055
rclavicle 1.98785e-015 -8.74653e-015
rhumerus -26.2872 8.09033 -87.4486
rradius 40.5477
rwrist 9.36939
rhand -27.6799 4.18201
rfingers 7.12502
rthumb -1.0768 -25.795
lclavicle 1.98785e-015 -8.74653e-015
lhumerus -21.8801 16.4541 79.3396
lradius 21.9349
lwrist -6.21766
lhand -29.759 20.0654
lfingers 7.12502
lthumb -3.08468 50.0229
rfemur -17.5198 6.41719 18.1116
rtibia 59.0938
rfoot -23.3865 -22.4507
rtoes -0.0794027
lfemur -19.0866 8.42594 -26.4915
ltibia 47.5173
lfoot -27.8942 -1.10334
ltoes 11.9351
792
root -1.86738 28.7187 -6.3941 178.369 -0.933326 181.639
lowerback 10.1031 1.38625 -4.30408
upperback 2.62227 1.06148 -1.50743
thorax -2.98929 0.424883 0.72935
lowerneck -5.21296 3.24057 -6.10197
upperneck 19.0742 3.44778 4.22585
head 6.44163 1.17303 2.56316
rclavicle -3.77691e-015 -4.6118e-014
rhumerus -26.4615 7.88161 -87.3528
rradius 40.3265
rwrist 9.45356
rhand -27.6787 4.55697
rfingers 7.12502
rthumb -1.07557 -25.4201
lclavicle -3.77691e-015 -4.6118e-014
lhumerus -21.9109 16.5816 79.4412
lradius 21.8623
lwrist -6.15897
lhand -29.8385 20.8231
lfingers 7.12502
lthumb -3.1615 50.7794
rfemur -17.8297 6.47234 18.2249
rtibia 59.4427
rfoot -23.9717 -22.5806
rtoes -0.0220075
lfemur -18.6643 8.05954 -26.2762
ltibia 47.1012
lfoot -27.7552 -1.34725
ltoes 12.5955
793
root -1.87054 28.7398 -6.42086 178.247 -1.46797 181.634
lowerback 10.0281 1.37892 -4.31131
upperback 2.58968 1.05813 -1.53401
thorax -2.98121 0.425571 0.707063
lowerneck -5.07142 3.20273 -6.11157
upperneck 19.0318 3.38417 4.24353
head 6.40616 1.14231 2.56295
rclavicle 1.31198e-014 1.03368e-014
rhumerus -26.7342 7.68955 -87.2008
rradius 40.1039
rwrist 9.38274
rhand -27.7617 4.7988
rfingers 7.12502
rthumb -1.15579 -25.1778
lclavicle 1.31198e-014 1.03368e-014
lhumerus -21.9628 16.5926 79.6086
lradius 21.6767
lwrist -6.02973
lhand -30.0314 20.9874
lfingers 7.12502
lthumb -3.34779 50.9408
rfemur -18.1511 6.5389 18.139
rtibia 59.7791
rfoot -24.5634 -22.7006
rtoes -0.283415
lfemur -18.157 7.69892 -26.2536
ltibia 46.6462
lfoot -27.6709 -1.76555
ltoes 13.7554
794
root -1.8744 28.762 -6.45109 178.126 -1.95772 181.507
lowerback 9.87768 1.40457 -4.59855
upperback 2.61192 1.07634 -1.48807
thorax -2.88183 0.434635 0.915959
lowerneck -5.46268 3.10987 -6.15341
upperneck 19.3123 3.29344 4.19434
head 6.57001 1.09021 2.56115
rclavicle -7.35503e-015 -7.95139e-016
rhumerus -26.9871 7.66055 -86.9039
rradius 40.0134
rwrist 9.15542
rhand -27.651 4.59706
rfingers 7.12502
rthumb -1.04883 -25.3801
lclavicle -7.35503e-015 -7.95139e-016
lhumerus -21.9223 16.9989 79.8492
lradius 21.379
lwrist -6.30659
lhand -30.2434 20.6721
lfingers 7.12502
lthumb -3.5525 50.6222
rfemur -18.464 6.64088 17.9072
rtibia 60.0973
rfoot -25.1391 -22.7416
rtoes -0.455376
lfemur -17.6107 7.34363 -26.3785
ltibia 46.1318
lfoot -27.5456 -2.07275
ltoes 14.4993
795
root -1.87854 28.7842 -6.47865 177.963 -2.47271 181.298
lowerback 9.80091 1.42486 -5.10048
upperback 2.65839 1.06486 -1.35076
thorax -2.80183 0.428769 1.34253
lowerneck -5.69894 3.03663 -6.3194
upperneck 19.3761 3.26178 4.09241
head 6.63396 1.06096 2.5601
rclavicle -3.77691e-015 -1.98785e-014
rhumerus -27.1808 7.76363 -86.499
rradius 39.8468
rwrist 9.17312
rhand -27.5339 4.2852
rfingers 7.12502
rthumb -0.935739 -25.6925
lclavicle -3.77691e-015 -1.98785e-014
lhumerus -22.0007 17.5176 80.2151
lradius 21.2952
lwrist -6.5902
lhand -29.9864 20.5828
lfingers 7.12502
lthumb -3.30437 50.537
rfemur -18.7164 6.74574 17.5786
rtibia 60.3963
rfoot -25.5809 -22.7215
rtoes 0.210813
lfemur -17.0214 6.93109 -26.5951
ltibia 45.5961
lfoot -27.3457 -2.14412
ltoes 14.2113
796
root -1.8822 28.8033 -6.50546 177.834 -3.02722 181.251
lowerback 9.77744 1.3841 -5.24402
upperback 2.59058 1.00565 -1.30841
thorax -2.85865 0.406017 1.47375
lowerneck -5.06164 3.16041 -6.39906
upperneck 18.9487 3.42212 4.02435
head 6.37722 1.13281 2.54201
rclavicle 1.98785e-016 -1.43125e-014
rhumerus -27.4557 7.72765 -86.3337
rradius 39.4579
rwrist 9.46489
rhand -27.7208 4.39948
rfingers 7.12502
rthumb -1.11625 -25.5773
lclavicle 1.98785e-016 -1.43125e-014
lhumerus -22.2717 17.7279 80.3661
lradius 21.2761
lwrist -6.52797
lhand -29.4012 21.1228
lfingers 7.12502
lthumb -2.73918 51.085
rfemur -18.991 6.88219 17.4526
rtibia 60.6708
rfoot -26.007 -22.6789
rtoes 0.765169
lfemur -16.4812 6.47683 -26.6367
ltibia 45.0763
lfoot -27.1276 -1.98095
ltoes 13.0281
797
root -1.88523 28.816 -6.53129 177.776 -3.56691 181.247
lowerback 9.73184 1.34626 -5.15262
upperback 2.50626 0.965997 -1.41956
thorax -2.91529 0.390817 1.31187
lowerneck -4.76633 3.28737 -6.28177
upperneck 18.8532 3.55387 4.0508
head 6.28921 1.20394 2.53135
rclavicle 9.93923e-016 -1.03368e-014
rhumerus -27.7104 7.46534 -86.3631
rradius 39.0925
rwrist 9.72277
rhand -27.9566 4.8293
rfingers 7.12502
rthumb -1.34399 -25.1462
lclavicle 9.93923e-016 -1.03368e-014
lhumerus -22.4037 17.6718 80.3835
lradius 21.1492
lwrist -6.41075
lhand -28.7987 21.773
lfingers 7.12502
lthumb -2.1573 51.7418
rfemur -19.3528 7.07537 17.3801
rtibia 60.9187
rfoot -26.4513 -22.6014
rtoes 0.485263
lfemur -16.0361 6.06585 -26.6493
ltibia 44.5844
lfoot -26.9524 -1.8605
ltoes 12.116
798
root -1.88837 28.8331 -6.55624 177.692 -4.18842 181.041
lowerback 9.70216 1.30385 -5.2679
upperback 2.56303 0.885274 -1.58446
thorax -2.83444 0.343552 1.21623
lowerneck -5.24849 3.30521 -6.17779
upperneck 19.172 3.58678 4.11889
head 6.47328 1.23157 2.55361
rclavicle 1.38155e-014 2.46493e-014
rhumerus -27.7075 7.21913 -86.3559
rradius 38.7643
rwrist 9.80487
rhand -27.9839 4.84896
rfingers 7.12502
rthumb -1.37032 -25.1264
lclavicle 1.38155e-014 2.46493e-014
lhumerus -22.2853 17.5305 80.4933
lradius 21.0713
lwrist -6.17392
lhand -28.5557 21.9294
lfingers 7.12502
lthumb -1.92257 51.9005
rfemur -19.6898 7.20003 17.0754
rtibia 61.1411
rfoot -26.7858 -22.4167
rtoes 0.549402
lfemur -15.5603 5.61799 -26.8896
ltibia 44.0987
lfoot -26.771 -1.92329
ltoes 12.0411
